<svg xmlns:xlink="http://www.w3.org/1999/xlink" width="270" height="166" fill="none" xmlns="http://www.w3.org/2000/svg" id="svg955665904_2626"><path d="m20.39 33.95 4.092-.12s-4.704-2.632-4.092.12l1.488 8.593a93.557 93.557 0 0 1-1.488-8.593Zm3.804 17.096 3.954-.75a100.714 100.714 0 0 0 2.976 8.055l-3.847 1.044a104.443 104.443 0 0 1-3.083-8.35Zm6.9 16.492 3.712-1.327c1.333 2.561 2.8 5.127 4.364 7.626l-3.558 1.595a117.505 117.505 0 0 1-4.518-7.894Zm9.704 15.493 3.38-1.854a119.007 119.007 0 0 0 5.614 7.008l-3.186 2.103a127.171 127.171 0 0 1-5.808-7.257Zm12.216 14.115 2.966-2.334a122.496 122.496 0 0 0 6.725 6.198l-2.724 2.557c-2.398-2.05-4.74-4.21-6.967-6.42Zm14.461 12.356 2.458-2.769a121.081 121.081 0 0 0 7.69 5.192l-2.165 2.966a126.03 126.03 0 0 1-7.983-5.389Zm16.4 10.177 1.85-3.145c.986.51 1.98 1.007 2.974 1.486 1.812.875 3.649 1.702 5.498 2.487l-1.515 3.303a124.846 124.846 0 0 1-8.806-4.131Zm17.94 7.582 1.171-3.434a129.022 129.022 0 0 0 9.019 2.659l-.839 3.53a135.364 135.364 0 0 1-9.351-2.755Zm19.365 1.209c3.048.549 6.172.994 9.274 1.327l-.168 3.651a138.9 138.9 0 0 1-9.605-1.374l.499-3.604Zm18.575 1.992c3.087.11 6.208.11 9.276.002l.49 3.675c-3.178.113-6.411.112-9.605-.001l-.161-3.676Zm18.471-.657c3.047-.328 6.087-.772 9.042-1.317l1.135 3.606c-3.06.561-6.21 1.023-9.364 1.362l-.813-3.651Zm17.877-3.291c2.9-.766 5.781-1.651 8.558-2.633l1.771 3.437a114.677 114.677 0 0 1-8.878 2.728l-1.451-3.532Zm16.773-5.92a98.706 98.706 0 0 0 7.8-3.933l2.386 3.157a102.31 102.31 0 0 1-8.104 4.089l-2.082-3.313Zm15.149-8.494a111.754 111.754 0 0 0 6.908-5.084l2.874 2.832a118.724 118.724 0 0 1-7.129 5.248l-2.653-2.996Zm13.401-10.603a145.517 145.517 0 0 0 6.102-5.887l3.189 2.544a148.62 148.62 0 0 1-6.249 6.025l-3.042-2.682Zm11.877-12.065a220.827 220.827 0 0 0 5.5-6.404l3.38 2.336a233.904 233.904 0 0 1-5.581 6.495l-3.299-2.427Zm10.78-12.975a480.087 480.087 0 0 0 5.133-6.693l3.473 2.219a466.766 466.766 0 0 1-5.168 6.734l-3.438-2.26Z" fill="#FF7A00"></path><circle cx="253" cy="63" r="17" fill="#FF7A00"></circle><path d="M248.202 59.765c-.031 1.569.2 2.998 1.621 4.02-.075-.46-.168-.916-.222-1.377-.246-2.11-.053-4.14 1.288-5.946.755-1.019 1.734-1.807 2.944-2.462-.101.327-.208.582-.256.847-.209 1.156.194 2.158 1.041 2.965.621.593 1.339 1.104 2.053 1.603 1.271.889 2.312 1.942 2.854 3.36 1.293 3.385-.09 7.09-3.715 8.67-3.392 1.477-7.77-.105-9.139-3.41-1.148-2.771-.849-5.45 1.103-7.885.082-.102.175-.196.267-.29.023-.025.06-.038.161-.095Zm1.291 8.616c.932 1.21 3.324 2.073 5.538 1.26 2.28-.837 3.586-3.106 3.103-5.392-.375-1.772-2.04-3.279-3.487-3.478.911 1.133 1.293 2.379 1.063 3.777-.215 1.313-1.48 3.032-2.365 3.16.443-.9.695-1.823.466-2.827-.721 1.94-2.126 3.125-4.318 3.5Z" fill="#FFFFFF"></path></svg>