<svg xmlns:xlink="http://www.w3.org/1999/xlink" width="194" height="100" fill="none" xmlns="http://www.w3.org/2000/svg" id="svg-1831328471_1851"><path d="m0 34.544 3.22-1.343a97.53 97.53 0 0 0 3.209 7.462l-3.1 1.63A101.665 101.665 0 0 1 0 34.544ZM7.294 49.71l2.952-1.904a100.69 100.69 0 0 0 4.376 6.79l-2.794 2.152a104.42 104.42 0 0 1-4.534-7.038Zm9.6 13.66 2.615-2.381a101.608 101.608 0 0 0 5.372 5.964l-2.427 2.59a107.59 107.59 0 0 1-5.56-6.174ZM28.47 75.232l2.22-2.783a100.037 100.037 0 0 0 6.21 4.998l-2.005 2.963a106.948 106.948 0 0 1-6.425-5.178Zm13.23 9.797 1.771-3.117a95.234 95.234 0 0 0 6.889 3.892l-1.524 3.257a99.373 99.373 0 0 1-7.136-4.032Zm14.57 7.444 1.26-3.38a88.613 88.613 0 0 0 7.404 2.644l-.979 3.479a92.297 92.297 0 0 1-7.685-2.743Zm15.566 4.783.683-3.555c.91.19 1.823.366 2.732.524a87.3 87.3 0 0 0 4.987.722l-.377 3.605a87.091 87.091 0 0 1-8.025-1.296ZM87.974 99.1l.072-3.626a88.619 88.619 0 0 0 7.825-.173l.217 3.62a93.189 93.189 0 0 1-8.114.18Zm15.678-4.66a93.017 93.017 0 0 0 7.696-1.52l.779 3.534a97.972 97.972 0 0 1-7.97 1.573l-.505-3.588Zm15.247-3.678a97.457 97.457 0 0 0 7.366-2.783l1.307 3.358a99.574 99.574 0 0 1-7.626 2.883l-1.047-3.458ZM133.4 84.59a95.276 95.276 0 0 0 6.851-3.972l1.802 3.099a100.263 100.263 0 0 1-7.094 4.112l-1.559-3.24Zm13.373-8.507a93.836 93.836 0 0 0 6.137-5.081l2.265 2.747a97.182 97.182 0 0 1-6.367 5.267l-2.035-2.933ZM158.611 65.4a91.659 91.659 0 0 0 5.21-6.094l2.684 2.295a94.616 94.616 0 0 1-5.413 6.334l-2.481-2.535Zm9.905-12.65a113.09 113.09 0 0 0 4.215-6.924l2.99 1.839a120.964 120.964 0 0 1-4.349 7.145l-2.856-2.06Zm7.991-14.138c1.187-2.446 2.31-4.93 3.374-7.448l3.168 1.469a160.754 160.754 0 0 1-3.457 7.623l-3.085-1.644Zm6.415-15.075a246.686 246.686 0 0 0 2.766-7.76l3.268 1.214c-.9 2.643-1.83 5.271-2.808 7.871l-3.226-1.325Zm5.316-15.613c.824-2.636 1.62-5.279 2.403-7.925l3.312 1.074a521.97 521.97 0 0 1-2.42 7.975l-3.295-1.124Z" fill="#FF7A00"></path></svg>