<svg width="24" height="24" viewBox="0 0 24 24" fill="none" xmlns="http://www.w3.org/2000/svg">
<path d="M7.443 5.34961C8.082 5.34961 8.673 5.39961 9.213 5.54761C9.754 5.64661 10.197 5.84461 10.59 6.09161C10.984 6.33894 11.279 6.68528 11.475 7.13061C11.672 7.57561 11.771 8.12061 11.771 8.71361C11.771 9.40661 11.623 9.99961 11.279 10.4446C10.984 10.8906 10.492 11.2856 9.902 11.5826C10.738 11.8306 11.377 12.2756 11.771 12.8686C12.165 13.4616 12.41 14.2046 12.41 15.0456C12.41 15.7386 12.262 16.3316 12.016 16.8266C11.771 17.3216 11.377 17.7666 10.934 18.0636C10.4526 18.3816 9.9207 18.6156 9.361 18.7556C8.771 18.9046 8.181 19.0036 7.591 19.0036H1V5.34961H7.443ZM7.049 10.8896C7.59 10.8896 8.033 10.7416 8.377 10.4946C8.721 10.2476 8.869 9.80161 8.869 9.25761C8.869 8.96061 8.819 8.66361 8.721 8.46661C8.623 8.26961 8.475 8.11961 8.279 7.97161C8.0786 7.85905 7.86306 7.77587 7.639 7.72461C7.393 7.67461 7.148 7.67461 6.852 7.67461H4V10.8906L7.049 10.8896ZM7.197 16.7276C7.492 16.7276 7.787 16.6776 8.033 16.6286C8.279 16.5786 8.525 16.4806 8.721 16.3316C8.9206 16.186 9.08808 16.0008 9.213 15.7876C9.311 15.5406 9.41 15.2436 9.41 14.8976C9.41 14.2046 9.213 13.7096 8.82 13.3636C8.426 13.0666 7.885 12.9186 7.246 12.9186H4V16.7286L7.197 16.7276ZM16.689 16.6776C17.0823 17.0736 17.6723 17.2716 18.459 17.2716C19 17.2716 19.492 17.1236 19.885 16.8766C20.279 16.5793 20.525 16.2823 20.623 15.9856H23.033C22.639 17.1726 22.049 18.0136 21.263 18.5576C20.475 19.0526 19.541 19.3496 18.41 19.3496C17.6865 19.3507 16.9691 19.2164 16.295 18.9536C15.6881 18.7273 15.1472 18.3534 14.721 17.8656C14.2633 17.411 13.9256 16.8499 13.738 16.2326C13.492 15.5896 13.393 14.8976 13.393 14.1056C13.393 13.3636 13.492 12.6716 13.738 12.0276C13.974 11.4072 14.3244 10.8366 14.771 10.3456C15.213 9.90061 15.754 9.50561 16.344 9.25761C17.0008 8.99391 17.7023 8.85946 18.41 8.86161C19.246 8.86161 19.984 9.01061 20.623 9.35661C21.263 9.70261 21.754 10.0986 22.147 10.6926C22.541 11.2366 22.837 11.8796 23.033 12.5726C23.131 13.2646 23.18 13.9576 23.131 14.7486H16C16 15.5406 16.295 16.2826 16.689 16.6786M19.787 11.4846C19.443 11.1386 18.902 10.9406 18.262 10.9406C17.8867 10.935 17.5156 11.0197 17.18 11.1876C16.885 11.3366 16.689 11.5346 16.492 11.7326C16.3098 11.9231 16.1899 12.1644 16.148 12.4246C16.098 12.6726 16.049 12.8696 16.049 13.0676H20.475C20.377 12.3256 20.131 11.8316 19.787 11.4846ZM15.459 6.28961H20.967V7.62561H15.46L15.459 6.28961Z" fill="#F46C38"/>
</svg>
